# xmcd CD database file
#
# Track frame offsets:
#	150
#	19016
#	39220
#	58073
#
# Disc length: 1040 seconds
#
# Revision: 0
# Processed by: cddbd v1.5.1PL0 Copyright (c) Steve Scherf et al.
# Submitted via: CDex 1.51
#
DISCID=27040e04
DTITLE=南戸唯・西野つかさ・北大路さつき・東城綾(水樹奈々・豊口めぐみ・小林沙苗・能登麻美子) - 君色100％
DYEAR=2005
DGENRE=Anime
TTITLE0=君色100％
TTITLE1=ペパーミント
TTITLE2=君色100％(Off vocal)
TTITLE3=ペパーミント(Off vocal)
EXTD=YEAR: 2005
EXTT0=
EXTT1=
EXTT2=
EXTT3=
PLAYORDER=
